<svg width="71" height="40" viewBox="0 0 71 40" fill="none" xmlns="http://www.w3.org/2000/svg">
<rect width="4.40001" height="4.39988" transform="matrix(4.37114e-08 1 1 -4.37114e-08 65.9334 0)" fill="#C3E500"/>
<rect width="4.40001" height="4.39988" transform="matrix(4.37114e-08 1 1 -4.37114e-08 61.5335 0)" fill="#E50AAE"/>
<rect width="4.40001" height="4.39988" transform="matrix(4.37114e-08 1 1 -4.37114e-08 65.9334 4.39998)" fill="#36D955"/>
<path d="M30.8816 40H37.7877V35.8449H30.8816V40ZM19.3714 40H26.2775V35.8449H19.3714V40ZM56.8227 40H61.4268V35.8449H56.8227V40ZM42.3924 40H52.2186V35.8449H42.3924V40ZM0.449596 40H14.7674V35.8449H0.44896V40H0.449596ZM26.502 7.26534H30.6571V0.134766H26.502V7.26534ZM53.6215 23.9977H52.218V35.8449H56.8221V18.944C56.878 14.733 53.8459 11.9254 49.2419 11.9254H38.1247V15.9679H48.5684C50.9264 15.912 52.4425 17.091 52.4425 19C52.3865 21.0775 51.095 21.8635 47.6699 22.9866L44.6378 23.9971C39.8093 25.569 37.7877 28.3207 37.7877 32.1387V35.8443H42.3917V32.8681C42.3917 30.285 43.4022 29.1626 46.8273 27.8145L49.8594 26.6355C51.3194 26.074 52.667 25.3439 53.6215 23.9964V23.9977ZM26.2769 35.8449H30.8809V11.9254H26.2769V35.8449ZM14.7667 35.8449H19.3708V31.9709C19.3708 28.0968 17.2932 25.6822 12.1836 23.9977L9.15154 22.9872C5.78243 21.8642 4.43491 21.1907 4.43491 18.9447C4.43491 17.2041 6.0635 15.9686 8.14042 15.9686H19.0331V11.926H7.46762C3.14399 11.926 0 14.5651 0 18.8887C0 23.2123 2.30203 25.2899 6.9627 26.8619L9.99477 27.8724C14.1499 29.2758 14.7674 30.1744 14.7674 32.8694V35.8455L14.7667 35.8449Z" fill="#1D2609"/>
</svg>
