<svg width="1097" height="800" viewBox="0 0 1097 800" fill="none" xmlns="http://www.w3.org/2000/svg">
<mask id="mask0_110_1635" style="mask-type:luminance" maskUnits="userSpaceOnUse" x="-411" y="-140" width="1920" height="1080">
<path d="M1509 -140H-411V940H1509V-140Z" fill="white"/>
</mask>
<g mask="url(#mask0_110_1635)">
<path d="M-411 342.16C-396.35 307.35 -385.92 274.28 -337.06 225.42C-249.01 137.36 -212.24 174.13 -124.18 86.08C-36.13 -1.97 -72.9 -38.74 15.16 -126.8C19.91 -131.55 24.51 -135.93 28.97 -140" stroke="#474747" stroke-width="2" stroke-miterlimit="10"/>
<path d="M-411 427.62C-357.99 360.48 -376.43 322.7 -299.44 245.7C-211.39 157.65 -174.62 194.42 -86.56 106.37C1.49001 18.31 -35.28 -18.46 52.78 -106.51C66.75 -120.49 79.44 -131.32 91.24 -140" stroke="#474747" stroke-width="2" stroke-miterlimit="10"/>
<path d="M-411 488.4C-407.79 485.39 -404.51 482.22 -401.16 478.87C-313.1 390.82 -349.87 354.05 -261.82 265.99C-173.76 177.94 -136.99 214.71 -48.94 126.65C39.11 38.6 2.34 1.83 90.4 -86.23C118.06 -113.9 140.66 -129.24 161.38 -140" stroke="#474747" stroke-width="2" stroke-miterlimit="10"/>
<path d="M-411 538.97C-396.68 529.36 -381.13 516.75 -363.54 499.16C-275.48 411.1 -312.25 374.33 -224.2 286.28C-136.14 198.22 -99.37 234.99 -11.32 146.94C76.73 58.89 39.96 22.12 128.02 -65.94C177.01 -114.93 210.13 -125.28 245.04 -140" stroke="#474747" stroke-width="2" stroke-miterlimit="10"/>
<path d="M-411 580.03C-386.35 568.88 -359.97 553.5 -325.92 519.44C-237.86 431.39 -274.63 394.62 -186.58 306.56C-98.52 218.51 -61.75 255.28 26.3 167.23C114.35 79.17 77.58 42.4 165.64 -45.65C232.76 -112.77 270.08 -107.37 323.03 -140" stroke="#474747" stroke-width="2" stroke-miterlimit="10"/>
<path d="M-411 616.22C-373.94 600.08 -339.94 591.37 -288.3 539.73C-200.24 451.67 -237.01 414.9 -148.96 326.85C-60.9 238.8 -24.13 275.57 63.92 187.51C151.97 99.46 115.21 62.69 203.26 -25.37C281.7 -103.8 319.45 -83.19 389 -140" stroke="#474747" stroke-width="2" stroke-miterlimit="10"/>
<path d="M-411 656.21C-356.48 621.51 -319.03 628.37 -250.68 560.02C-162.62 471.96 -199.39 435.19 -111.34 347.14C-23.28 259.08 13.49 295.85 101.54 207.8C189.6 119.74 152.83 82.97 240.88 -5.08C327.43 -91.63 364.43 -57.59 449.28 -140" stroke="#474747" stroke-width="2" stroke-miterlimit="10"/>
<path d="M-411 705.43C-333.4 635.46 -295.96 663.21 -213.06 580.3C-125 492.25 -161.77 455.48 -73.72 367.42C14.34 279.37 51.11 316.14 139.16 228.09C227.22 140.03 190.45 103.26 278.5 15.21C366.56 -72.85 403.33 -36.08 491.38 -124.14C496.86 -129.62 501.85 -134.9 506.43 -140" stroke="#474747" stroke-width="2" stroke-miterlimit="10"/>
<path d="M-411 764.64C-404.5 756.84 -397.02 748.64 -388.31 739.93C-300.26 651.87 -263.49 688.64 -175.43 600.59C-87.38 512.53 -124.15 475.76 -36.09 387.71C51.96 299.66 88.73 336.43 176.78 248.37C264.84 160.32 228.07 123.55 316.12 35.49C404.18 -52.56 440.95 -15.79 529 -103.85C542.07 -116.92 552.39 -128.85 560.77 -140" stroke="#474747" stroke-width="2" stroke-miterlimit="10"/>
<path d="M-411 844.68C-399.87 820.21 -384.46 793.98 -350.69 760.22C-262.64 672.16 -225.87 708.93 -137.81 620.87C-49.76 532.82 -86.53 496.05 1.53 408C89.58 319.94 126.35 356.71 214.4 268.66C302.46 180.6 265.69 143.83 353.74 55.78C441.8 -32.28 478.57 4.49 566.62 -83.56C587.96 -104.9 601.97 -123.23 612.2 -140" stroke="#474747" stroke-width="2" stroke-miterlimit="10"/>
<path d="M-408.73 940C-374.63 885.93 -381.08 848.51 -313.07 780.5C-225.02 692.45 -188.25 729.22 -100.19 641.16C-12.1405 553.11 -48.9105 516.34 39.1495 428.28C127.2 340.23 163.97 377 252.02 288.94C340.08 200.89 303.309 164.12 391.359 76.07C479.419 -11.99 516.189 24.78 604.24 -63.28C634.48 -93.51 650 -117.7 660.91 -140" stroke="#474747" stroke-width="2" stroke-miterlimit="10"/>
<path d="M-359.65 940C-337.43 896 -334.65 859.98 -275.45 800.79C-187.4 712.73 -150.63 749.5 -62.5704 661.45C25.4796 573.39 -11.2904 536.62 76.7696 448.57C164.82 360.51 201.59 397.28 289.64 309.23C377.7 221.18 340.93 184.41 428.98 96.35C517.04 8.3 553.81 45.07 641.86 -42.99C681.46 -82.59 695.82 -111.82 707.64 -140" stroke="#474747" stroke-width="2" stroke-miterlimit="10"/>
<path d="M-312.7 940C-297.54 904.39 -287.72 870.96 -237.83 821.07C-149.78 733.02 -113.01 769.79 -24.9502 681.73C63.0998 593.68 26.3298 556.91 114.39 468.86C202.44 380.8 239.21 417.57 327.26 329.52C415.32 241.46 378.55 204.69 466.6 116.64C554.66 28.58 591.43 65.35 679.49 -22.7C728.61 -71.83 738.88 -104.99 753.66 -140" stroke="#474747" stroke-width="2" stroke-miterlimit="10"/>
<path d="M-266.66 940C-254.71 911.32 -240.58 881.73 -200.21 841.36C-112.16 753.31 -75.3901 790.08 12.6699 702.02C100.72 613.97 63.9499 577.2 152.01 489.14C240.06 401.09 276.83 437.86 364.88 349.8C452.94 261.75 416.17 224.98 504.22 136.92C592.28 48.87 629.05 85.64 717.11 -2.42C775.57 -60.88 779.01 -96.73 800.49 -140" stroke="#474747" stroke-width="2" stroke-miterlimit="10"/>
<path d="M-220.05 940C-209.1 917.25 -193.57 892.63 -162.59 861.65C-74.5398 773.59 -37.7698 810.36 50.2902 722.31C138.34 634.25 101.57 597.48 189.63 509.43C277.68 421.37 314.45 458.14 402.51 370.09C490.56 282.04 453.79 245.27 541.84 157.21C629.9 69.16 666.67 105.92 754.73 17.87C822.05 -49.45 816.41 -86.8 849.37 -140" stroke="#474747" stroke-width="2" stroke-miterlimit="10"/>
<path d="M-171.53 940C-161.22 922.78 -147 903.96 -124.97 881.93C-36.9203 793.88 -0.150269 830.65 87.9097 742.59C175.96 654.54 139.19 617.77 227.25 529.71C315.3 441.66 352.07 478.43 440.13 390.38C528.18 302.32 491.41 265.55 579.47 177.5C667.52 89.44 704.29 126.21 792.35 38.16C867.89 -37.39 851.56 -75.19 901 -140" stroke="#474747" stroke-width="2" stroke-miterlimit="10"/>
<path d="M-120.34 940C-111.74 928.39 -101.06 915.93 -87.3499 902.22C0.70015 814.17 37.4702 850.93 125.53 762.88C213.58 674.82 176.81 638.06 264.87 550C352.92 461.95 389.69 498.72 477.75 410.66C565.8 322.61 529.03 285.84 617.09 197.78C705.14 109.73 741.91 146.5 829.97 58.44C913.05 -24.64 885 -62.06 955.55 -140" stroke="#474747" stroke-width="2" stroke-miterlimit="10"/>
<path d="M-66.2197 940C-61.2597 934.39 -55.7897 928.57 -49.7297 922.51C38.3303 834.45 75.0903 871.22 163.15 783.17C251.2 695.11 214.44 658.34 302.49 570.29C390.54 482.23 427.31 519 515.37 430.95C603.42 342.89 566.65 306.13 654.71 218.07C742.76 130.01 779.53 166.78 867.59 78.73C955.64 -9.33 918.87 -46.1 1006.93 -134.15C1008.94 -136.16 1010.93 -138.11 1012.89 -140" stroke="#474747" stroke-width="2" stroke-miterlimit="10"/>
<path d="M-9.29004 940C76.75 855.52 113.67 890.56 200.77 803.45C288.83 715.4 252.06 678.63 340.11 590.57C428.16 502.52 464.93 539.29 552.99 451.24C641.04 363.18 604.27 326.41 692.33 238.36C780.38 150.3 817.15 187.07 905.21 99.01C993.26 10.96 956.49 -25.81 1044.55 -113.87C1054.83 -124.15 1064.41 -132.73 1073.45 -140" stroke="#474747" stroke-width="2" stroke-miterlimit="10"/>
<path d="M50.6797 940C121.5 881.16 159.22 902.91 238.39 823.74C326.45 735.68 289.68 698.91 377.73 610.86C465.78 522.81 502.55 559.58 590.61 471.52C678.66 383.47 641.89 346.7 729.95 258.64C818 170.59 854.77 207.36 942.83 119.3C1030.88 31.25 994.11 -5.52 1082.17 -93.58C1104.1 -115.51 1122.85 -129.7 1140 -140" stroke="#474747" stroke-width="2" stroke-miterlimit="10"/>
<path d="M116.03 940C170.37 905.54 207.8 912.24 276.01 844.03C364.07 755.97 327.3 719.2 415.35 631.15C503.41 543.09 540.17 579.86 628.23 491.81C716.28 403.75 679.51 366.98 767.57 278.93C855.62 190.87 892.39 227.64 980.45 139.59C1068.5 51.53 1031.73 14.76 1119.79 -73.29C1160.45 -113.95 1190.17 -127.99 1219.06 -140" stroke="#474747" stroke-width="2" stroke-miterlimit="10"/>
<path d="M192.78 940C229.12 924.36 262.85 915.1 313.63 864.31C401.69 776.26 364.92 739.49 452.97 651.43C541.03 563.38 577.8 600.15 665.85 512.09C753.9 424.04 717.13 387.27 805.19 299.22C893.24 211.16 930.01 247.93 1018.07 159.87C1106.13 71.82 1069.36 35.05 1157.41 -53.01C1219 -114.59 1255.5 -115.12 1302.01 -140" stroke="#474747" stroke-width="2" stroke-miterlimit="10"/>
<path d="M277.05 940C298.65 929.16 322.15 913.69 351.25 884.6C439.31 796.54 402.54 759.77 490.59 671.72C578.65 583.67 615.42 620.43 703.47 532.38C791.52 444.33 754.75 407.56 842.81 319.5C930.87 231.45 967.63 268.22 1055.69 180.16C1143.75 92.11 1106.98 55.34 1195.03 -32.72C1269.87 -107.56 1307.66 -92.24 1371.37 -140" stroke="#474747" stroke-width="2" stroke-miterlimit="10"/>
<path d="M348.17 940C360.6 931.05 374.01 919.74 388.87 904.88C476.93 816.83 440.16 780.06 528.21 692.01C616.27 603.95 653.04 640.72 741.09 552.67C829.14 464.61 792.38 427.84 880.43 339.79C968.49 251.73 1005.26 288.5 1093.31 200.45C1181.37 112.39 1144.6 75.62 1232.65 -12.43C1316.51 -96.29 1353.85 -66.95 1433.27 -140" stroke="#474747" stroke-width="2" stroke-miterlimit="10"/>
<path d="M410.87 940C415.9 935.48 421.1 930.56 426.49 925.17C514.55 837.12 477.78 800.35 565.83 712.29C653.89 624.24 690.66 661.01 778.71 572.95C866.77 484.9 830 448.13 918.05 360.08C1006.11 272.02 1042.88 308.79 1130.93 220.73C1218.99 132.68 1182.22 95.91 1270.27 7.85001C1358.33 -80.21 1395.1 -43.44 1483.16 -131.5C1486.05 -134.39 1488.8 -137.22 1491.43 -140" stroke="#474747" stroke-width="2" stroke-miterlimit="10"/>
<path d="M469.47 939.999C550.69 855.839 517.24 818.789 603.45 732.579C691.51 644.519 728.28 681.289 816.33 593.239C904.39 505.189 867.62 468.419 955.67 380.359C1043.73 292.309 1080.5 329.079 1168.55 241.019C1256.61 152.959 1219.84 116.189 1307.89 28.1391C1391.92 -55.8909 1429.25 -26.2509 1509 -99.8809" stroke="#474747" stroke-width="2" stroke-miterlimit="10"/>
<path d="M525.28 939.999C583.53 869.549 562.11 831.829 641.07 752.859C729.13 664.809 765.9 701.579 853.95 613.529C942.01 525.469 905.24 488.699 993.29 400.649C1081.35 312.589 1118.12 349.359 1206.17 261.309C1294.23 173.249 1257.46 136.479 1345.51 48.4292C1415.18 -21.2408 1452.74 -12.7708 1509 -49.8008" stroke="#474747" stroke-width="2" stroke-miterlimit="10"/>
<path d="M578.21 940C617.86 881.86 607.65 844.2 678.7 773.15C766.75 685.1 803.52 721.87 891.57 633.81C979.63 545.76 942.86 508.99 1030.91 420.93C1118.97 332.88 1155.74 369.65 1243.79 281.59C1331.85 193.54 1295.08 156.77 1383.13 68.7101C1436.24 15.6001 1470.7 7.90008 1509 -9.16992" stroke="#474747" stroke-width="2" stroke-miterlimit="10"/>
<path d="M628.25 940C654.2 892.55 653.86 855.89 716.32 793.44C804.37 705.38 841.14 742.15 929.19 654.1C1017.25 566.04 980.48 529.28 1068.53 441.22C1156.59 353.16 1193.36 389.93 1281.41 301.88C1369.47 213.82 1332.7 177.05 1420.75 89.0002C1456.27 53.4802 1483.44 38.2802 1509 26.9902" stroke="#474747" stroke-width="2" stroke-miterlimit="10"/>
<path d="M675.88 940.001C693.07 901.531 700.64 867.021 753.94 813.721C841.99 725.671 878.76 762.441 966.81 674.391C1054.87 586.331 1018.1 549.561 1106.15 461.511C1194.21 373.451 1230.98 410.221 1319.03 322.161C1407.09 234.111 1370.32 197.341 1458.37 109.291C1477.27 90.3908 1493.81 77.2409 1509 67.3809" stroke="#474747" stroke-width="2" stroke-miterlimit="10"/>
<path d="M722.07 939.999C734.83 908.939 747.74 877.829 791.56 834.009C879.61 745.959 916.38 782.729 1004.43 694.669C1092.49 606.619 1055.72 569.849 1143.77 481.789C1231.83 393.739 1268.6 430.509 1356.65 342.449C1444.71 254.399 1407.94 217.629 1496 129.569C1500.46 125.109 1504.79 120.959 1509 117.109" stroke="#474747" stroke-width="2" stroke-miterlimit="10"/>
<path d="M768.3 940.001C779.48 915.181 794.84 888.641 829.18 854.301C917.23 766.241 954 803.011 1042.05 714.961C1130.11 626.901 1093.34 590.131 1181.39 502.081C1269.45 414.021 1306.22 450.791 1394.28 362.741C1472.76 284.261 1452.08 246.511 1509 176.891" stroke="#474747" stroke-width="2" stroke-miterlimit="10"/>
<path d="M816.01 940C826.62 920.79 841.59 899.79 866.8 874.58C954.85 786.53 991.62 823.3 1079.68 735.25C1167.73 647.19 1130.96 610.42 1219.01 522.37C1307.07 434.31 1343.84 471.08 1431.9 383.02C1484.19 330.73 1492.46 296.53 1509 258.92" stroke="#474747" stroke-width="2" stroke-miterlimit="10"/>
<path d="M866.18 940C875.59 926.33 887.77 911.52 904.42 894.87C992.47 806.82 1029.24 843.59 1117.3 755.53C1205.35 667.48 1168.58 630.71 1256.64 542.65C1344.69 454.6 1381.46 491.37 1469.52 403.31C1486.91 385.91 1499.43 370.52 1509 356.34" stroke="#474747" stroke-width="2" stroke-miterlimit="10"/>
<path d="M919.24 940C925.76 932.16 933.29 923.911 942.04 915.161C1030.09 827.101 1066.86 863.87 1154.92 775.82C1242.97 687.76 1206.2 650.99 1294.26 562.94C1382.31 474.88 1419.08 511.65 1507.14 423.6C1507.77 422.97 1508.39 422.35 1509 421.73" stroke="#474747" stroke-width="2" stroke-miterlimit="10"/>
<path d="M975.17 939.999C976.63 938.499 978.12 936.979 979.66 935.439C1067.71 847.389 1104.48 884.159 1192.54 796.099C1280.59 708.049 1243.82 671.279 1331.88 583.229C1407.02 508.089 1444.81 523.839 1509 475.359" stroke="#474747" stroke-width="2" stroke-miterlimit="10"/>
<path d="M1033.91 940C1110.35 871.94 1147.85 898.69 1230.16 816.39C1318.21 728.34 1281.44 691.57 1369.5 603.51C1428.82 544.19 1464.86 541.52 1509 519.17" stroke="#474747" stroke-width="2" stroke-miterlimit="10"/>
<path d="M1096.83 940C1157.34 896.99 1195.08 909.37 1267.78 836.68C1355.83 748.62 1319.06 711.85 1407.12 623.8C1449 581.91 1479.28 568.27 1509 556.01" stroke="#474747" stroke-width="2" stroke-miterlimit="10"/>
</g>
</svg>
